<svg width="511" height="98.4" viewBox="0 0 511 98.4" xmlns="http://www.w3.org/2000/svg"><g id="svgGroup" stroke-linecap="round" fill-rule="evenodd" font-size="9pt" stroke="#000" stroke-width="0.25mm" fill="#000" style="stroke:#000;stroke-width:0.25mm;fill:#000"><path d="M 55.8 96.4 L 57.8 88.9 A 9.908 9.908 0 0 0 58.965 89.474 Q 59.788 89.819 60.8 90.1 A 13.514 13.514 0 0 0 63.079 90.518 A 17.358 17.358 0 0 0 64.8 90.6 Q 69 90.6 72.3 87.9 A 12.003 12.003 0 0 0 74.233 85.839 Q 75.981 83.528 77.641 79.675 A 58.58 58.58 0 0 0 78.6 77.3 L 80.9 71.3 L 76.1 71.3 L 55.8 25.6 L 63.8 22 L 83.2 65.3 L 98.3 22.4 L 106.6 25.6 L 87.5 77.8 A 71.728 71.728 0 0 1 85.447 82.887 Q 84.345 85.326 83.178 87.314 A 30.86 30.86 0 0 1 81.2 90.3 A 24.268 24.268 0 0 1 78.322 93.511 Q 76.408 95.279 74.305 96.318 A 14.737 14.737 0 0 1 73.7 96.6 Q 69.6 98.4 64.6 98.4 Q 61.6 98.4 59.35 97.8 Q 57.1 97.2 55.8 96.4 Z M 406.4 57 L 406.4 23.2 L 415.4 23.2 L 415.4 55.8 A 22.981 22.981 0 0 0 415.654 59.334 Q 415.942 61.181 416.557 62.67 A 10.136 10.136 0 0 0 418 65.15 A 8.404 8.404 0 0 0 423.113 68.171 A 12.807 12.807 0 0 0 425.6 68.4 Q 429.7 68.4 433.55 66.75 Q 437.4 65.1 440.4 62.3 L 440.4 23.2 L 449.4 23.2 L 449.4 61.7 A 15.602 15.602 0 0 0 449.502 63.554 Q 449.834 66.317 451.25 67.35 Q 453.1 68.7 455.3 68.7 L 453.4 75.7 Q 444.1 75.7 441.9 68.3 Q 438.4 71.9 433.8 74.15 Q 429.2 76.4 423.9 76.4 Q 419.4 76.4 415.4 74.5 A 14.441 14.441 0 0 1 409.89 69.861 A 18.266 18.266 0 0 1 408.9 68.35 A 16.24 16.24 0 0 1 407.236 64.257 Q 406.4 61.105 406.4 57 Z M 476.3 75.2 L 467.3 75.2 L 467.3 23.2 L 476 23.2 L 476 31.9 Q 478.8 27.7 483.15 24.85 A 17.316 17.316 0 0 1 490.256 22.226 A 22.629 22.629 0 0 1 493.5 22 A 23.225 23.225 0 0 1 498.565 22.518 Q 503.659 23.656 506.65 27.3 Q 510.775 32.326 510.988 40.409 A 33.764 33.764 0 0 1 511 41.3 L 511 75.2 L 502 75.2 L 502 42.3 A 19.265 19.265 0 0 0 501.658 38.559 Q 501.219 36.345 500.219 34.597 A 10.966 10.966 0 0 0 499.35 33.3 A 8.579 8.579 0 0 0 493.073 29.947 A 12.061 12.061 0 0 0 492 29.9 A 13.122 13.122 0 0 0 485.151 31.864 A 17.353 17.353 0 0 0 483.3 33.15 Q 479.2 36.4 476.3 40.8 L 476.3 75.2 Z M 382.1 75.2 L 373.1 75.2 L 373.1 32.9 L 365.1 32.9 L 365.1 25.1 L 373.1 25.1 L 373.1 19 A 25.495 25.495 0 0 1 373.726 13.182 Q 374.834 8.452 377.902 5.203 A 16.387 16.387 0 0 1 378 5.1 A 16.367 16.367 0 0 1 388.404 0.125 A 22.463 22.463 0 0 1 390.8 0 A 29.982 29.982 0 0 1 394.31 0.195 Q 396.055 0.401 397.571 0.825 A 17.884 17.884 0 0 1 398 0.95 Q 401.1 1.9 403.9 3.3 L 401.2 10.9 Q 399.1 9.8 396.7 8.9 A 14.172 14.172 0 0 0 393.078 8.079 A 17.356 17.356 0 0 0 391.4 8 A 10.802 10.802 0 0 0 388.371 8.405 A 8.291 8.291 0 0 0 384.65 10.65 A 8.462 8.462 0 0 0 382.703 14.019 Q 382.1 15.92 382.1 18.4 L 382.1 25.1 L 397.5 25.1 L 397.5 32.9 L 382.1 32.9 L 382.1 75.2 Z M 246.7 28.4 L 246.7 1.2 L 255.7 1.2 L 255.7 62.6 A 12.15 12.15 0 0 0 255.802 64.236 Q 256.134 66.67 257.55 67.55 Q 259.4 68.7 261.6 68.7 L 259.7 75.7 Q 250.2 75.7 248.1 68.1 Q 245.9 71.2 241.95 73.8 Q 238 76.4 232 76.4 Q 225.6 76.4 220.3 73.1 A 22.692 22.692 0 0 1 212.762 65.309 A 27.622 27.622 0 0 1 211.9 63.75 A 27.533 27.533 0 0 1 209.312 55.808 A 37.221 37.221 0 0 1 208.8 49.5 A 33.94 33.94 0 0 1 209.689 41.586 A 27.963 27.963 0 0 1 211.95 35.4 A 27.291 27.291 0 0 1 216.569 28.809 A 24.186 24.186 0 0 1 220.35 25.6 Q 225.6 22 231.9 22 A 21.642 21.642 0 0 1 236.172 22.402 A 15.942 15.942 0 0 1 240.85 24.1 A 34.343 34.343 0 0 1 243.43 25.689 Q 244.654 26.524 245.625 27.374 A 16.59 16.59 0 0 1 246.7 28.4 Z M 14.9 97.2 L 5.9 97.2 L 5.9 36.5 A 11.015 11.015 0 0 0 5.773 34.764 Q 5.442 32.698 4.25 31.65 A 5.718 5.718 0 0 0 1.46 30.328 A 7.991 7.991 0 0 0 0 30.2 L 1.9 23.2 Q 7.762 23.2 10.822 26.164 A 10.15 10.15 0 0 1 13.4 30.5 Q 14.355 29.067 16.452 27.178 A 38.58 38.58 0 0 1 16.65 27 A 18.902 18.902 0 0 1 19.351 25.016 A 25.569 25.569 0 0 1 22.25 23.5 A 16.955 16.955 0 0 1 26.809 22.211 A 21.886 21.886 0 0 1 29.9 22 Q 35.9 22 41.15 25.15 A 22.329 22.329 0 0 1 48.328 32.117 A 27.464 27.464 0 0 1 49.6 34.25 Q 52.8 40.2 52.8 48.7 Q 52.8 57 49.6 63.25 A 27.846 27.846 0 0 1 45.666 69.082 A 23.029 23.029 0 0 1 41.25 72.95 Q 36.1 76.4 30.1 76.4 Q 25.5 76.4 21.5 74.55 A 30.352 30.352 0 0 1 18.084 72.711 Q 16.291 71.585 14.9 70.3 L 14.9 97.2 Z M 334.4 57.3 L 334.4 32.9 L 325.4 32.9 L 325.4 25.1 L 334.6 25.1 L 336.5 8.7 L 343.4 8.7 L 343.4 25.1 L 357.8 25.1 L 357.8 32.9 L 343.4 32.9 L 343.4 58 A 21.559 21.559 0 0 0 343.568 60.796 Q 344.041 64.402 345.85 66.1 Q 348.3 68.4 351.7 68.4 Q 354.2 68.4 356.45 67.6 Q 358.7 66.8 360.6 65.7 L 363.1 72.9 A 18.546 18.546 0 0 1 361.482 73.756 Q 360.68 74.135 359.734 74.508 A 43.365 43.365 0 0 1 357.7 75.25 Q 354.3 76.4 350.6 76.4 Q 343.1 76.4 338.75 71.45 A 16.116 16.116 0 0 1 335.522 65.548 Q 334.759 63.117 334.515 60.181 A 34.777 34.777 0 0 1 334.4 57.3 Z M 124.6 75.2 L 115.6 75.2 L 115.6 23.2 L 124.3 23.2 L 124.3 34.5 Q 125.6 31.2 127.8 28.35 Q 130 25.5 133.3 23.75 A 14.817 14.817 0 0 1 137.98 22.226 A 19.459 19.459 0 0 1 141 22 Q 142.5 22 144 22.15 A 18.972 18.972 0 0 1 145.055 22.284 Q 145.555 22.362 145.982 22.463 A 8.817 8.817 0 0 1 146.5 22.6 L 143.8 31.9 A 9.763 9.763 0 0 0 141.655 31.288 Q 140.559 31.1 139.3 31.1 A 12.958 12.958 0 0 0 132.67 32.946 A 15.609 15.609 0 0 0 132.25 33.2 Q 128.922 35.286 126.778 39.642 A 22.927 22.927 0 0 0 126.75 39.7 Q 124.987 43.307 124.67 48.528 A 39.09 39.09 0 0 0 124.6 50.9 L 124.6 75.2 Z M 161.1 72.95 A 24.559 24.559 0 0 0 165.698 75.04 Q 169.753 76.4 174.4 76.4 Q 181.8 76.4 187.65 73 Q 193.5 69.6 196.9 63.45 A 26.255 26.255 0 0 0 199.553 56.309 A 34.184 34.184 0 0 0 200.3 49 A 34.542 34.542 0 0 0 199.815 43.092 A 25.795 25.795 0 0 0 196.85 34.65 Q 193.4 28.6 187.55 25.3 A 24.848 24.848 0 0 0 182.909 23.273 A 27.738 27.738 0 0 0 174.4 22 A 31.325 31.325 0 0 0 172.82 22.04 A 26.169 26.169 0 0 0 161.2 25.3 Q 155.3 28.6 151.9 34.7 A 26.023 26.023 0 0 0 149.151 42.29 A 35.006 35.006 0 0 0 148.5 49.2 A 34.82 34.82 0 0 0 148.765 53.554 A 27.451 27.451 0 0 0 151.85 63.35 Q 155.2 69.5 161.1 72.95 Z M 281.2 72.95 A 24.559 24.559 0 0 0 285.798 75.04 Q 289.853 76.4 294.5 76.4 Q 301.9 76.4 307.75 73 Q 313.6 69.6 317 63.45 A 26.255 26.255 0 0 0 319.653 56.309 A 34.184 34.184 0 0 0 320.4 49 A 34.542 34.542 0 0 0 319.915 43.092 A 25.795 25.795 0 0 0 316.95 34.65 Q 313.5 28.6 307.65 25.3 A 24.848 24.848 0 0 0 303.009 23.273 A 27.738 27.738 0 0 0 294.5 22 A 31.325 31.325 0 0 0 292.92 22.04 A 26.169 26.169 0 0 0 281.3 25.3 Q 275.4 28.6 272 34.7 A 26.023 26.023 0 0 0 269.251 42.29 A 35.006 35.006 0 0 0 268.6 49.2 A 34.82 34.82 0 0 0 268.865 53.554 A 27.451 27.451 0 0 0 271.95 63.35 Q 275.3 69.5 281.2 72.95 Z M 174.4 68.4 Q 182.3 68.4 186.7 63.05 A 18.802 18.802 0 0 0 190.519 54.96 A 27.105 27.105 0 0 0 191.1 49.2 Q 191.1 44 188.9 39.65 A 19.198 19.198 0 0 0 184.728 34.081 A 18.17 18.17 0 0 0 182.95 32.65 Q 179.2 30 174.4 30 A 19.249 19.249 0 0 0 169.174 30.672 A 14.037 14.037 0 0 0 162.1 35.2 A 17.878 17.878 0 0 0 158.426 42.574 Q 157.7 45.506 157.7 49 Q 157.7 54.2 159.9 58.65 A 19.437 19.437 0 0 0 163.43 63.69 A 17.627 17.627 0 0 0 165.85 65.75 Q 169.6 68.4 174.4 68.4 Z M 294.5 68.4 Q 302.4 68.4 306.8 63.05 A 18.802 18.802 0 0 0 310.619 54.96 A 27.105 27.105 0 0 0 311.2 49.2 Q 311.2 44 309 39.65 A 19.198 19.198 0 0 0 304.828 34.081 A 18.17 18.17 0 0 0 303.05 32.65 Q 299.3 30 294.5 30 A 19.249 19.249 0 0 0 289.274 30.672 A 14.037 14.037 0 0 0 282.2 35.2 A 17.878 17.878 0 0 0 278.526 42.574 Q 277.8 45.506 277.8 49 Q 277.8 54.2 280 58.65 A 19.437 19.437 0 0 0 283.53 63.69 A 17.627 17.627 0 0 0 285.95 65.75 Q 289.7 68.4 294.5 68.4 Z M 14.9 36.6 L 14.9 62.2 Q 17.5 64.9 20.9 66.65 Q 24.3 68.4 28.3 68.4 Q 34.994 68.4 39.217 63.216 A 17.38 17.38 0 0 0 39.35 63.05 A 18.792 18.792 0 0 0 42.844 55.745 Q 43.505 53.055 43.588 49.908 A 34.555 34.555 0 0 0 43.6 49 Q 43.6 43 41.45 38.7 Q 39.3 34.4 35.75 32.1 Q 32.2 29.8 27.9 29.8 A 14.741 14.741 0 0 0 22.273 30.863 A 14.054 14.054 0 0 0 20.15 31.95 Q 16.7 34.1 14.9 36.6 Z M 246.7 62.1 L 246.7 36.3 A 15.847 15.847 0 0 0 244.589 34.127 Q 243.468 33.164 242.069 32.266 A 28.139 28.139 0 0 0 241.4 31.85 Q 238 29.8 233.9 29.8 A 14.946 14.946 0 0 0 228.944 30.6 A 13.385 13.385 0 0 0 225.5 32.4 A 16.69 16.69 0 0 0 220.33 38.55 A 19.924 19.924 0 0 0 219.95 39.35 A 22.19 22.19 0 0 0 218.21 45.715 A 28.113 28.113 0 0 0 218 49.2 A 24.757 24.757 0 0 0 218.593 54.719 A 20.327 20.327 0 0 0 220.1 59.05 A 18.205 18.205 0 0 0 223.14 63.564 A 16.122 16.122 0 0 0 225.85 65.9 Q 229.5 68.4 234 68.4 Q 237.7 68.4 241.05 66.65 Q 244.4 64.9 246.7 62.1 Z" vector-effect="non-scaling-stroke"/></g></svg>